<svg width="104" height="70" viewBox="0 0 104 70" fill="none" xmlns="http://www.w3.org/2000/svg">
<path d="M3.25004 69.255C2.32704 69.255 1.55571 68.9408 0.936045 68.3125C0.316378 67.6841 0.00437785 66.9106 4.45205e-05 65.992C-0.00428881 65.0733 0.307712 64.302 0.936045 63.678C1.56438 63.054 2.33571 62.7441 3.25004 62.7485H100.75C101.673 62.7485 102.444 63.0605 103.064 63.6845C103.688 64.3085 104 65.082 104 66.005C104 66.928 103.688 67.6993 103.064 68.319C102.44 68.9386 101.669 69.2485 100.75 69.2485L3.25004 69.255ZM3.25004 38.25C2.32704 38.25 1.55571 37.938 0.936045 37.314C0.316378 36.69 0.00437785 35.9165 4.45205e-05 34.9935C-0.00428881 34.0705 0.307712 33.2991 0.936045 32.6795C1.56438 32.0598 2.33571 31.75 3.25004 31.75H100.75C101.673 31.75 102.444 32.062 103.064 32.686C103.684 33.31 103.996 34.0835 104 35.0065C104.004 35.9295 103.692 36.7008 103.064 37.3205C102.436 37.9401 101.664 38.25 100.75 38.25H3.25004ZM3.25004 7.24497C2.32704 7.24497 1.55571 6.93513 0.936045 6.31546C0.312045 5.69146 4.45205e-05 4.91797 4.45205e-05 3.99497C4.45205e-05 3.07197 0.312045 2.30063 0.936045 1.68097C1.56004 1.0613 2.33138 0.751465 3.25004 0.751465H100.75C101.673 0.751465 102.444 1.06347 103.064 1.68747C103.684 2.31147 103.996 3.08063 104 3.99497C104.004 4.9093 103.692 5.68063 103.064 6.30896C102.436 6.9373 101.664 7.2493 100.75 7.24497H3.25004Z" fill="black"/>
</svg>
